HIERARCHY
ROOT RootJoint
{
    OFFSET   0.000000   0.000000   0.000000
    CHANNELS 6 Xposition Yposition Zposition Xrotation Yrotation Zrotation
    JOINT pelvis_lowerback
    {
        OFFSET   0.000000   0.093605   0.000000
        CHANNELS 3 Xrotation Yrotation Zrotation
        JOINT lowerback_torso
        {
            OFFSET   0.000000   0.100000   0.000000
            CHANNELS 3 Xrotation Yrotation Zrotation
            JOINT torso_head
            {
                OFFSET   0.000000   0.282350   0.000000
                CHANNELS 3 Xrotation Yrotation Zrotation
                End Site
                {
                    OFFSET   0.000000   0.192650   0.000000
                }
            }
            JOINT rTorso_Clavicle
            {
                OFFSET  -0.001000   0.157500   0.000000
                CHANNELS 3 Xrotation Yrotation Zrotation
                JOINT rShoulder
                {
                    OFFSET  -0.117647   0.000000   0.000000
                    CHANNELS 3 Xrotation Yrotation Zrotation
                    JOINT rElbow
                    {
                        OFFSET  -0.245000   0.000000   0.000000
                        CHANNELS 3 Xrotation Yrotation Zrotation
                        JOINT rWrist
                        {
                            OFFSET  -0.240000   0.000000   0.000000
                            CHANNELS 3 Xrotation Yrotation Zrotation
                            End Site
                            {
                                OFFSET  -0.116353  -0.002500   0.000000
                            }
                        }
                    }
                }
            }
            JOINT lTorso_Clavicle
            {
                OFFSET   0.001000   0.157500   0.000000
                CHANNELS 3 Xrotation Yrotation Zrotation
                JOINT lShoulder
                {
                    OFFSET   0.117647   0.000000   0.000000
                    CHANNELS 3 Xrotation Yrotation Zrotation
                    JOINT lElbow
                    {
                        OFFSET   0.245000   0.000000   0.000000
                        CHANNELS 3 Xrotation Yrotation Zrotation
                        JOINT lWrist
                        {
                            OFFSET   0.240000   0.000000   0.000000
                            CHANNELS 3 Xrotation Yrotation Zrotation
                            End Site
                            {
                                OFFSET   0.116353  -0.002500   0.000000
                            }
                        }
                    }
                }
            }
        }
    }
    JOINT rHip
    {
        OFFSET  -0.100000  -0.051395   0.000000
        CHANNELS 3 Xrotation Yrotation Zrotation
        JOINT rKnee
        {
            OFFSET   0.000000  -0.410000   0.000000
            CHANNELS 3 Xrotation Yrotation Zrotation
            JOINT rAnkle
            {
                OFFSET   0.000000  -0.390000   0.000000
                CHANNELS 3 Xrotation Yrotation Zrotation
                JOINT rToeJoint
                {
                    OFFSET   0.000000  -0.050000   0.130000
                    CHANNELS 3 Xrotation Yrotation Zrotation
                    End Site
                    {
                        OFFSET  -0.010000   0.002000   0.060000
                    }
                }
            }
        }
    }
    JOINT lHip
    {
        OFFSET   0.100000  -0.051395   0.000000
        CHANNELS 3 Xrotation Yrotation Zrotation
        JOINT lKnee
        {
            OFFSET   0.000000  -0.410000   0.000000
            CHANNELS 3 Xrotation Yrotation Zrotation
            JOINT lAnkle
            {
                OFFSET   0.000000  -0.390000   0.000000
                CHANNELS 3 Xrotation Yrotation Zrotation
                JOINT lToeJoint
                {
                    OFFSET   0.000000  -0.050000   0.130000
                    CHANNELS 3 Xrotation Yrotation Zrotation
                    End Site
                    {
                        OFFSET   0.010000   0.002000   0.060000
                    }
                }
            }
        }
    }
}
MOTION
Frames: 14
Frame Time:   0.008333
 -2.045788   0.889795   4.284957 -176.057382  29.545288 174.696645   5.044641   5.475318   1.850298   3.791521   5.165842   4.793770   1.056779  -1.788864   2.180110  -1.508402   6.309884  -0.184099 -12.355565  16.979895  46.781958 179.995236  82.532062 179.995904   2.052883   5.412728 -11.428609  10.153809   7.690039   3.482652  32.431504  -4.492527 -45.600396  -0.193262 -88.312297  -0.189213   3.943748  -2.998980   4.697842   1.429565  -1.582688  -1.984260  26.905721   0.009855  -0.003677 -19.281795  -2.679894   0.959635  -5.595389  -0.003339   0.001617 -18.647672  -6.036514   9.022262  26.775506  -0.009718   0.015670  -4.863134   5.411680   1.121299  -0.990396   0.002203  -0.002109
 -2.048100   0.891164   4.280207 -176.235024  29.507767 175.600594   4.898074   5.428000   1.514544   3.787633   5.091257   4.515000   1.015000  -1.571486   2.018699  -1.268342   6.103188  -0.149145 -11.433801  16.744177  47.279534 -179.992998  83.290317 179.979339   2.157289   5.766304 -11.485614   9.981767   7.523127   3.478454  31.532142  -4.672695 -45.622904  -0.341141 -88.765821  -0.337064   3.876012  -2.831197   4.733348   0.400439  -1.513688  -3.199305  29.110847   0.014983  -0.005104 -18.998070  -2.856725   1.061407  -5.793443  -0.003331   0.001496 -18.213479  -5.675329   7.915595  25.784785  -0.011180   0.013426  -4.486532   5.498449   1.209468  -0.747985   0.002345  -0.001704
 -2.050387   0.892417   4.275481 -176.352824  29.318454 176.468778   4.769595   5.306686   1.230657   3.799914   4.940497   4.234691   0.972108  -1.358349   1.844963  -0.946098   5.847632  -0.087185 -10.473040  16.474354  47.744410 -179.981047  84.067225 179.963184   2.192101   5.776804 -11.441246   9.743610   7.305667   3.450504  30.610897  -4.886974 -45.651082  -0.650673 -89.225652  -0.646464   3.820152  -2.824730   4.933571  -0.626973  -1.417269  -4.378174  31.371934   0.019942  -0.004147 -18.691130  -3.012366   1.156058  -5.581670  -0.001982   0.001219 -17.727178  -5.389371   6.791572  24.764936  -0.012528   0.010784  -4.087295   5.492784   1.291246  -0.524267   0.002439  -0.001378
 -2.052585   0.893500   4.270803 -176.426239  29.074119 177.279913   4.643948   5.142465   0.986960   3.815687   4.741291   3.982858   0.930485  -1.157503   1.680203  -0.598674   5.572540  -0.007354  -9.529879  16.204129  48.185213 -179.972829  84.813628 179.951935   2.192673   5.623331 -11.339604   9.492241   7.070589   3.407431  29.719818  -5.110709 -45.684182  -1.685243 -89.669100  -1.680797   3.774342  -2.921611   5.180457  -1.607875  -1.291666  -5.485334  33.541166   0.023501  -0.002686 -18.373713  -3.146861   1.244035  -5.027239   0.000118   0.001305 -17.223937  -5.149648   5.702355  23.791094  -0.013359   0.008230  -3.713228   5.441644   1.363395  -0.318982   0.002473  -0.001117
 -2.054697   0.894414   4.266202 -176.464937  28.831707 178.035688   4.520403   4.956480   0.776238   3.828568   4.519307   3.759335   0.890051  -0.969591   1.527074  -0.251306   5.294997   0.080536  -8.626294  15.944982  48.602354 -179.969238  85.519032 179.946459   2.179682   5.406823 -11.218494   9.244554   6.833889   3.356885  28.873596  -5.331501 -45.720259 -173.496227 -89.910085 -173.491476   3.734788  -3.064519   5.432357  -2.545657  -1.152133  -6.534357  35.579853   0.025495  -0.001994 -18.064277  -3.282956   1.320608  -4.371095   0.002081   0.001228 -16.715679  -4.934485   4.661795  22.882622  -0.013660   0.006070  -3.377490   5.377376   1.426170  -0.130719   0.002451  -0.000907
 -2.056715   0.895177   4.261706 -176.474392  28.609885 178.738921   4.400404   4.757641   0.593053   3.837218   4.286817   3.561690   0.851039  -0.794279   1.385590   0.084755   5.023000   0.170610  -7.770596  15.700946  48.995807 -179.970280  86.181270 179.946572   2.161895   5.170171 -11.096398   9.006370   6.602135   3.304738  28.075784  -5.543612 -45.756868 -178.787506 -89.515825 -178.782434   3.699432  -3.224178   5.679210  -3.445515  -1.000326  -7.521502  37.477705   0.026031  -0.001958 -17.775193  -3.410148   1.392167  -3.766944   0.003371   0.000955 -16.206617  -4.736163   3.673820  22.040271  -0.013537   0.004343  -3.080263   5.311886   1.480814   0.041905   0.002383  -0.000739
 -2.058635   0.895808   4.257333 -176.458256  28.413087 179.394425   4.284590   4.551149   0.432782   3.841974   4.050095   3.386469   0.813838  -0.630932   1.254932   0.404848   4.759943   0.259278  -6.964864  15.472972  49.365872 -179.975887  86.801000 179.951996   2.142944   4.931530 -10.981133   8.779799   6.378252   3.254583  27.326196  -5.744643 -45.792384 -179.327717 -89.146265 -179.322348   3.667236  -3.387525   5.918743  -4.310321  -0.839689  -8.446332  39.239561   0.025396  -0.002313 -17.505731  -3.528938   1.459090  -3.214413   0.004104   0.000563 -15.698670  -4.551683   2.736291  21.259937  -0.013112   0.003003  -2.818390   5.249457   1.528462   0.200157   0.002282  -0.000603
 -2.060837   0.896132   4.253448 -176.625800  28.112042 -179.701417   4.140683   4.353654   0.159813   3.737653   3.889116   3.077006   0.774889  -0.473184   1.034575   0.789671   4.448828   0.173872  -5.713882  15.095558  49.791361 -179.917102  87.561066 179.892045   2.257723   5.091228 -11.162146   8.510918   6.062912   3.193781  26.048654  -5.971370 -45.928421 -179.492055 -88.557076 -179.486666   3.561047  -3.181538   6.104267  -5.641499  -0.705071  -9.544847  41.562813   0.026148  -0.003204 -17.183664  -3.745797   1.393378  -2.995454   0.004143   0.000146 -15.369780  -4.451182   1.600721  20.356564  -0.013164   0.001944  -2.439817   5.199410   1.632279   0.345119   0.002109  -0.000493
 -2.062944   0.896269   4.249844 -176.756816  27.726249 -178.818184   4.047950   4.114915  -0.120136   3.656865   3.669596   2.735297   0.735344  -0.317348   0.810081   1.235031   4.114719   0.109363  -4.457801  14.717578  50.192147 -179.810278  88.315428 179.784447   2.334199   5.048985 -11.192395   8.168875   5.691520   3.089877  24.758463  -6.239526 -46.078652 -179.590402 -87.963853 -179.585182   3.474598  -3.177414   6.478955  -6.966230  -0.540792 -10.586138  43.803745   0.026405  -0.002329 -16.878131  -3.951708   1.331966  -2.790404   0.004042  -0.000017 -15.050128  -4.402862   0.471806  19.481990  -0.013014   0.000675  -2.053953   5.095087   1.724713   0.477140   0.001944  -0.000404
 -2.064907   0.896254   4.246469 -176.842913  27.330695 -177.981359   3.993310   3.847512  -0.404412   3.606860   3.410383   2.390109   0.701141  -0.169930   0.595317   1.688822   3.780064   0.069632  -3.247584  14.358318  50.577834 -179.588490  89.037504 179.562440   2.385001   4.887188 -11.139085   7.814183   5.299441   2.958529  23.514678  -6.521397 -46.235730 -179.668135 -87.395144 -179.663123   3.403026  -3.291191   6.882995  -8.259510  -0.349291 -11.549757  45.891102   0.025523  -0.001171 -16.593176  -4.144049   1.275028  -2.603033   0.003800  -0.000094 -14.729427  -4.375483  -0.614587  18.669529  -0.012558  -0.000422  -1.692988   4.972830   1.805967   0.598250   0.001781  -0.000331
 -2.066717   0.896117   4.243289 -176.887025  26.956798 -177.192378   3.967852   3.561672  -0.690209   3.582348   3.128830   2.049669   0.672548  -0.032191   0.392179   2.132562   3.452297   0.046984  -2.097688  14.021720  50.947924 -178.458244  89.719919 178.432507   2.422539   4.671792 -11.050919   7.467279   4.906506   2.814152  22.335037  -6.801579 -46.394680 -179.731716 -86.858131 -179.726909   3.340425  -3.456815   7.262700  -9.518984  -0.139084 -12.435991  47.821148   0.023561  -0.000258 -16.328189  -4.323713   1.222256  -2.432852   0.003453  -0.000153 -14.403530  -4.355846  -1.651566  17.922590  -0.011868  -0.001229  -1.365352   4.850990   1.878594   0.542875   0.001327  -0.000261
 -2.068375   0.895887   4.240272 -176.893847  26.614077 -176.448481   3.963353   3.264675  -0.973652   3.577155   2.835405   1.717605   0.649029   0.095994   0.200563   2.558779   3.133634   0.034565  -1.011730  13.707448  51.300624  -1.202749  89.638445   1.177754   2.453056   4.434590 -10.951572   7.135894   4.523186   2.665797  21.224384  -7.072109 -46.552236 -179.783562 -86.354345 -179.778950   3.283609  -3.641672   7.607657 -10.741795   0.083170 -13.247224  49.602311   0.020827   0.000390 -16.081931  -4.491566   1.173403  -2.278515   0.003044  -0.000209 -14.070623  -4.339378  -2.639296  17.236569  -0.011034  -0.001765  -1.071281   4.736053   1.942846   0.491709   0.000977  -0.000206
 -2.069884   0.895585   4.237394 -176.868358  26.303308 -175.745969   3.972585   2.962138  -1.251204   3.585539   2.536935   1.396069   0.629840   0.215132   0.020072   2.964377   2.824868   0.027602   0.010588  13.414119  51.634814  -0.430713  89.037341   0.406775   2.479524   4.190510 -10.852808   6.822955   4.155022   2.518641  20.182646  -7.329131 -46.706489 -179.825528 -85.883171 -179.821110   3.230883  -3.830596   7.919328 -11.924564   0.312394 -13.986459  51.245727   0.017655   0.000877 -15.853089  -4.648356   1.128242  -2.138656   0.002609  -0.000258 -13.730591  -4.325072  -3.580217  16.605315  -0.010134  -0.002084  -0.808690   4.629645   1.999645   0.444326   0.000707  -0.000163
 -2.071197   0.895251   4.234927 -176.928942  25.773704 -175.105676   3.941805   2.564731  -1.444214   3.554514   2.303804   1.041776   0.586281   0.281134  -0.175139   3.360743   2.425791  -0.129450   1.372195  13.027185  51.992246  -0.309933  88.649254   0.288605   2.550711   4.030258 -10.871330   6.503328   3.814741   2.347802  18.800545  -7.610647 -46.997734 -179.831408 -85.189429 -179.828317   3.137095  -3.722419   8.136294 -13.074571   0.512364 -14.545022  52.643842   0.015923   0.003937 -15.704213  -4.774654   0.979682  -2.158168   0.002048  -0.000238 -13.562233  -4.499597  -4.431905  16.036238  -0.009118  -0.002555  -0.519710   4.466055   1.998292   0.392127   0.000472  -0.000128
